# xmcd CD database file
#
# Track frame offsets:
#	150
#	23537
#	43370
#	71610
#	133720
#	152017
#	174922
#	204415
#	237200
#
# Disc length: 3449 seconds
#
# Revision: 2
# Processed by: cddbd v1.5.1PL0 Copyright (c) Steve Scherf et al.
# Submitted via: CDex 1.51
#
DISCID=710d7709
DTITLE=Rose Royce - Greatest Hits (live)
DYEAR=1900
DGENRE=Pop
TTITLE0=Is It Love You're After
TTITLE1=I Love The Feeling
TTITLE2=Wishing On A Star
TTITLE3=The Magic Touch
TTITLE4=Band Introduction
TTITLE5=Do Your Dance
TTITLE6=I Wanna Get Next To You
TTITLE7=Love Don't Live Here Anymore
TTITLE8=Car Wash
EXTD=
EXTT0=
EXTT1=
EXTT2=
EXTT3=
EXTT4=
EXTT5=
EXTT6=
EXTT7=
EXTT8=
PLAYORDER=
